<svg xmlns="http://www.w3.org/2000/svg" width="1600" height="758" fill="none"><rect width="1600" height="758" fill="#FDF6F0" rx="10"/><g stroke="#E18A54" stroke-linecap="round" stroke-linejoin="round" stroke-miterlimit="10" stroke-width="2" opacity=".15"><path d="M334.727 149.367c2.31-6.396-.927-13.445-7.234-15.883-6.269-2.424-13.505.682-16.052 6.907a12.501 12.501 0 0 0-.826 6.379c.156 1.215.29 2.433.263 3.657l-.143 7.869 6.48 2.341 7.148 2.583 4.058-5.435c.933-1.258 1.95-2.453 3.09-3.519a12.635 12.635 0 0 0 3.216-4.899Z"/><path d="m323.296 166.704-13.553-4.896a1.003 1.003 0 0 1-.601-1.28l.561-1.552a1.003 1.003 0 0 1 1.28-.601l13.553 4.896c.517.187.787.763.601 1.281l-.561 1.552a1.003 1.003 0 0 1-1.28.6ZM320.559 169.894l-10.741-3.88a1.003 1.003 0 0 1-.6-1.28l.995-2.756 12.622 4.56-.996 2.755a1.002 1.002 0 0 1-1.28.601ZM330.188 124.346l-1.699 4.703M338.566 130.116l-3.912 3.116M343.85 137.915l-4.711 1.68M319.756 123.32l1.016 4.897M310.707 125.942l2.55 4.302M304.077 133.786l4.73 1.624M344.378 148.345l-4.675-1.774M315.836 160.129l1.511-9.332M319.598 161.488l4.803-8.143M318.114 151.882l5.643 2.038"/></g><g stroke="#E18A54" stroke-linecap="round" stroke-linejoin="round" stroke-miterlimit="10" stroke-width="2" opacity=".15"><path d="M1496.44 91.26c-8.56-17.093-29.19-24.148-46.37-16.02-17.08 8.079-24.77 28.837-17.02 46.081 2.63 5.82 6.61 10.557 11.4 14.037 2.78 2.035 5.52 4.121 7.96 6.546l15.76 15.531 17.32-8.67 19.1-9.563-3.21-18.792c-.76-4.337-1.23-8.724-1.19-13.111a35.554 35.554 0 0 0-3.75-16.04Z"/><path d="m1509.62 148.126-36.22 18.131a2.818 2.818 0 0 1-3.77-1.255l-2.08-4.148a2.826 2.826 0 0 1 1.26-3.772l36.22-18.131a2.818 2.818 0 0 1 3.77 1.255l2.08 4.148a2.817 2.817 0 0 1-1.26 3.772ZM1510.82 159.879l-28.7 14.37a2.814 2.814 0 0 1-3.77-1.256l-3.69-7.365 33.73-16.886 3.69 7.365c.69 1.383.13 3.08-1.26 3.772ZM1436.67 52.053l6.29 12.568M1464.65 46.157l-1.23 14.004M1490.77 50.494l-5.7 12.85M1414.37 71.322l11.95 7.412M1402.19 94.836l13.7 3.136M1405.33 123.534l12.47-6.492M1513.04 69.617l-12.66 6.09M1481.78 150.59l-16.09-21.15M1491.83 145.557l-7.29-25.554M1469.39 129.979l15.08-7.55"/></g><g stroke="#E18A54" stroke-linecap="round" stroke-linejoin="round" stroke-miterlimit="10" stroke-width="2" opacity=".15"><path d="M1430.29 672.275c2.31-6.396-.93-13.445-7.24-15.883-6.27-2.424-13.5.682-16.05 6.907-.86 2.104-1.1 4.29-.83 6.379.16 1.215.29 2.433.27 3.657l-.15 7.869 6.48 2.341 7.15 2.583 4.06-5.435c.93-1.258 1.95-2.453 3.09-3.519a12.726 12.726 0 0 0 3.22-4.899Z"/><path d="m1418.85 689.612-13.55-4.896a.998.998 0 0 1-.6-1.28l.56-1.552c.19-.517.76-.787 1.28-.601l13.55 4.897c.52.186.79.763.61 1.28l-.57 1.552a.999.999 0 0 1-1.28.6Z"/><path d="m1416.12 692.802-10.74-3.88a.998.998 0 0 1-.6-1.28l.99-2.756 12.62 4.56-.99 2.756c-.19.517-.76.787-1.28.6ZM1425.75 647.254l-1.7 4.703M1434.12 653.024l-3.91 3.116M1439.41 660.824l-4.71 1.679M1415.31 646.229l1.02 4.896M1406.27 648.85l2.55 4.302M1399.64 656.694l4.73 1.624M1439.94 671.253l-4.68-1.774M1411.4 683.037l1.51-9.332M1415.16 684.396l4.8-8.143M1413.67 674.79l5.65 2.038"/></g><g stroke="#E18A54" stroke-linecap="round" stroke-linejoin="round" stroke-miterlimit="10" stroke-width="2" opacity=".15"><path d="M1209.92 507.345c-3.49 26.305-5.79 47.705-22.5 45.487-21.27-2.821-42.1-16.6-24.14-52.628 11.84-23.741 20.59-44.786 36.77-42.639 16.72 2.218 14.33 16.174 9.87 49.78Z"/><path d="M1156.84 529.157s10.98 3.825 15.04-1.719M1209.92 507.346s-11.84-1.31-14.05-9.208M1200.42 547.17s-7.65-1.102-10.29-5.797M1206.72 524.542s-5.26-3.24-14.32-.444M1213.18 475.884s-1.31 9.386-9.57 5.466M1197.49 485.861s11.49-4.669 1.58-11.849"/><path d="M1169.75 518.921s-1.81 9.537 8.86 11.038M1173.4 506.804s7.84-4.024 11.38 3.139"/><path d="M1180.17 505.941s4.97-3.794 2.92-9.759M1172.13 482.497s8.41-7.401 13.82-.708M1195.57 457.58s-6.48 6.288-1.5 11.358M1209.92 507.345c-3.49 26.305-6.85 47.563 9.86 49.781 21.27 2.821 44.97-5.05 37.02-44.517-5.24-26.007-8.2-48.603-24.38-50.75-16.7-2.215-18.04 11.88-22.5 45.486Z"/><path d="M1255.48 542.242s-11.61.829-14.08-5.583M1208.67 516.718s11.13 1.607 14.69-2.136M1212.43 553.109s7.68.931 11.44-2.914M1212.2 497.024s5.92-1.756 13.94 3.305M1205.76 529.215s-1.19 9.403 7.81 7.772M1225.12 491.698s-9.87-7.501 1.57-11.85"/><path d="M1245.7 528.995s-.74 9.678-11.43 8.348M1245.33 516.345s-6.51-5.926-11.8.064"/><path d="M1239.03 513.749s-3.82-4.96-.28-10.183M1252.9 493.211s-6.19-9.338-13.16-4.288M1236.74 463.04s4.62 7.761-1.51 11.359"/></g><g stroke="#E18A54" stroke-linecap="round" stroke-linejoin="round" stroke-miterlimit="10" stroke-width="2" opacity=".15"><path d="M438.56 558.844c8.125 14.475 15.007 26.049 5.807 31.213-11.702 6.569-27.301 7.49-31.829-17.287-2.984-16.326-6.505-30.142 2.401-35.141 9.2-5.164 13.24 2.721 23.621 21.215Z"/><path d="M420.176 589.682s6.935-2.208 6.886-6.507M438.56 558.844s-6.419 3.788-10.489.665M448.752 582.342s-4.245 2.321-7.326.96M443.415 568.65s-3.85.353-7.336 5.153M428.384 541.872s2.867 5.19-2.737 6.327M424.278 552.753s3.995-6.647-3.66-6.521"/><path d="M422.8 579.711s2.674 5.453 8.575 2.202M420.079 572.277s2.411-4.954 6.875-2.7"/><path d="M423.14 569.307s1.069-3.768-2.198-5.982M410.32 560.588s1.433-6.862 6.654-5.543M412.704 539.317s-.885 5.58 3.508 6.251M438.56 558.844c8.125 14.475 14.42 26.378 23.62 21.214 11.703-6.569 20.614-19.405 1.822-36.175-12.384-11.05-22.344-21.251-31.25-16.252-9.188 5.157-4.573 12.719 5.808 31.213Z"/><path d="M474.46 559.212s-5.497 4.77-9.141 2.489M441.455 564.002s6.173-3.372 6.55-6.582M456.992 580.807s4.191-2.414 4.635-5.753M435.828 552.821s2.307-3.102 8.22-3.579M444.685 571.352s2.937 5.15 6.826.958M440.295 545.308s-7.755-.051-3.661-6.521"/><path d="M464.594 556.252s3.261 5.123-2.587 8.467M459.664 550.057s-5.485-.521-5.886 4.463"/><path d="M455.534 551.124s-3.772-1.05-3.961-4.993M454.769 535.638s-6.604-2.35-8.198 2.794M435.357 526.601s5.225 2.151 3.509 6.251"/></g><g stroke="#E18A54" stroke-linecap="round" stroke-linejoin="round" stroke-miterlimit="10" stroke-width="2" opacity=".15"><path d="M655.256 679.874c6.302-1.997 9.792-8.725 7.796-15.027-1.997-6.302-8.725-9.792-15.027-7.795-6.302 1.997-9.792 8.724-7.795 15.026 1.997 6.302 8.724 9.792 15.026 7.796Z"/><path d="m650.947 663.458 1.625 1.688a.95.95 0 0 0 .844.279l2.314-.377a.953.953 0 0 1 .998 1.394l-1.109 2.061a.963.963 0 0 0-.011.895l1.079 2.081c.36.704-.24 1.524-1.02 1.383l-2.302-.414a.935.935 0 0 0-.848.269l-1.645 1.664c-.555.564-1.518.24-1.63-.543l-.316-2.323a.965.965 0 0 0-.524-.726l-2.094-1.046c-.709-.352-.697-1.373.013-1.714l2.109-1.025a.969.969 0 0 0 .529-.713l.358-2.316a.947.947 0 0 1 1.63-.517Z"/><path d="M669 662.962c.465 1.468-1.229 3.306-1.162 4.774.072 1.519 1.913 3.191 1.588 4.648-.329 1.478-2.706 2.221-3.396 3.551-.69 1.331.071 3.702-.948 4.822-1.006 1.095-3.43.562-4.714 1.378-1.239.791-1.765 3.234-3.234 3.7-1.468.465-3.305-1.229-4.774-1.163-1.519.073-3.191 1.914-4.647 1.588-1.478-.329-2.221-2.705-3.552-3.396-1.33-.69-3.701.072-4.821-.947-1.095-1.007-.563-3.431-1.378-4.714-.792-1.239-3.235-1.766-3.7-3.234-.465-1.468 1.229-3.306 1.162-4.774-.072-1.519-1.913-3.191-1.588-4.647.329-1.479 2.706-2.221 3.396-3.552.691-1.331-.071-3.701.948-4.822 1.006-1.095 3.431-.562 4.714-1.378 1.239-.791 1.766-3.234 3.234-3.699 1.468-.465 3.305 1.229 4.774 1.162 1.519-.072 3.191-1.913 4.647-1.588 1.479.329 2.221 2.706 3.552 3.396 1.33.69 3.701-.071 4.821.948 1.095 1.006.563 3.43 1.379 4.714.791 1.239 3.234 1.765 3.699 3.233Z"/><path d="m664.311 681.536 3.459 10.915a.998.998 0 0 1-1.069 1.294l-7.277-.884a1 1 0 0 0-.791.251l-5.441 4.913a.997.997 0 0 1-1.619-.442l-3.458-10.915"/></g><g stroke="#E18A54" stroke-linecap="round" stroke-linejoin="round" stroke-miterlimit="10" stroke-width="2" opacity=".15"><path d="M1120.3 684.702c7.43-4.992 9.41-15.066 4.42-22.5-4.99-7.435-15.07-9.414-22.5-4.422s-9.41 15.066-4.42 22.5c4.99 7.434 15.06 9.414 22.5 4.422Z"/><path d="m1108.45 664.999 2.76 1.576c.37.209.82.23 1.2.041l2.87-1.37c.97-.473 2.05.384 1.83 1.433l-.66 3.102c-.1.421.03.856.32 1.167l2.2 2.296c.73.779.26 2.073-.8 2.185l-3.15.338c-.43.042-.8.292-1 .672l-1.51 2.789c-.51.944-1.88.889-2.32-.086l-1.3-2.9a1.304 1.304 0 0 0-.96-.745l-3.12-.564c-1.05-.188-1.43-1.521-.63-2.233l2.35-2.135c.31-.29.47-.708.42-1.128l-.42-3.147c-.15-1.074.99-1.837 1.92-1.291Z"/><path d="M1131.74 657.489c1.16 1.732-.34 4.765.3 6.649.67 1.948 3.7 3.422 3.83 5.439.14 2.047-2.67 3.916-3.06 5.908-.39 1.993 1.5 4.786.6 6.629-.89 1.807-4.25 2.036-5.61 3.585-1.31 1.499-1.06 4.876-2.79 6.039-1.73 1.163-4.77-.341-6.65.304-1.95.671-3.42 3.701-5.44 3.831-2.05.135-3.92-2.673-5.91-3.064-1.99-.392-4.78 1.5-6.63.6-1.8-.891-2.03-4.246-3.58-5.604-1.5-1.31-4.88-1.066-6.04-2.798-1.16-1.732.34-4.765-.31-6.648-.67-1.948-3.7-3.422-3.83-5.439-.13-2.047 2.68-3.916 3.07-5.909.39-1.992-1.5-4.785-.6-6.629.89-1.806 4.24-2.035 5.6-3.584 1.31-1.499 1.07-4.876 2.8-6.039 1.73-1.163 4.76.341 6.65-.304 1.95-.672 3.42-3.701 5.44-3.832 2.04-.134 3.91 2.673 5.91 3.065 1.99.392 4.78-1.5 6.62-.601 1.81.892 2.04 4.246 3.59 5.605 1.5 1.31 4.87 1.066 6.04 2.797Z"/><path d="m1132.7 683.42 8.65 12.877a1.35 1.35 0 0 1-.9 2.088l-9.79 1.618c-.39.061-.74.296-.94.627l-5.2 8.455c-.52.836-1.72.863-2.28.042l-8.64-12.876"/></g><g stroke="#E18A54" stroke-linecap="round" stroke-linejoin="round" stroke-miterlimit="10" stroke-width="2" opacity=".15"><path d="M1375.96 319.215c5.49-3.685 6.95-11.122 3.27-16.61-3.69-5.489-11.12-6.95-16.61-3.265-5.49 3.686-6.95 11.123-3.27 16.611 3.69 5.488 11.13 6.95 16.61 3.264Z"/><path d="m1367.22 304.67 2.04 1.163c.27.155.6.17.88.03l2.12-1.011c.72-.349 1.51.284 1.35 1.058l-.49 2.29a.97.97 0 0 0 .24.862l1.62 1.694a.957.957 0 0 1-.59 1.614l-2.32.249a.932.932 0 0 0-.74.496l-1.11 2.059c-.38.697-1.39.656-1.72-.064l-.96-2.14a.955.955 0 0 0-.7-.55l-2.31-.417c-.78-.138-1.05-1.122-.47-1.648l1.74-1.576a.973.973 0 0 0 .31-.833l-.31-2.323a.947.947 0 0 1 1.42-.953Z"/><path d="M1384.41 299.126c.86 1.278-.25 3.518.22 4.908.5 1.438 2.74 2.526 2.83 4.015.1 1.512-1.97 2.891-2.26 4.362-.29 1.471 1.11 3.533.44 4.894-.65 1.334-3.13 1.503-4.13 2.646-.97 1.107-.79 3.6-2.07 4.458-1.28.859-3.52-.251-4.91.225-1.44.496-2.52 2.732-4.01 2.828-1.51.1-2.89-1.973-4.36-2.262-1.48-.289-3.54 1.107-4.9.443-1.33-.658-1.5-3.134-2.64-4.137-1.11-.967-3.6-.787-4.46-2.065-.86-1.279.25-3.518-.23-4.909-.49-1.438-2.73-2.526-2.83-4.015-.1-1.511 1.98-2.891 2.27-4.362.29-1.471-1.11-3.532-.45-4.893.66-1.334 3.14-1.503 4.14-2.646.97-1.107.79-3.6 2.07-4.459 1.27-.858 3.51.252 4.9-.224 1.44-.496 2.53-2.732 4.02-2.829 1.51-.099 2.89 1.974 4.36 2.263 1.47.289 3.53-1.108 4.9-.444 1.33.659 1.5 3.135 2.64 4.138 1.11.967 3.6.786 4.46 2.065Z"/><path d="m1385.12 318.269 6.39 9.506a1 1 0 0 1-.67 1.541l-7.23 1.195a1.01 1.01 0 0 0-.69.463l-3.84 6.242a.998.998 0 0 1-1.68.03l-6.38-9.505"/></g><g stroke="#E18A54" stroke-linecap="round" stroke-linejoin="round" stroke-miterlimit="10" stroke-width="2" opacity=".15"><path d="M1203.68 59.725s-6.15 14.389 5.99 24.92c12.16 10.523 4.86 31.822-13.36 34.146-18.22 2.324-21.14 13.769-21.14 13.769"/><path d="M1228.23 69.33s-5.25 14.741-21.31 14.24c-16.07-.522-25.17 20.072-13.36 34.146 11.81 14.073 6.19 24.461 6.19 24.461M1203.39 63.174l7.76 3.037M1226.68 72.286l-7.76-3.037M1204.06 70.6l4.66 1.822M1221.14 77.282l-4.65-1.822M1177.27 129.943l7.76 3.037M1200.56 139.056l-7.77-3.038M1182.8 124.947l4.66 1.822M1199.88 131.629l-4.66-1.822M1195.22 88.625l6.21 2.43M1189.15 104.153l6.21 2.43M1190.63 95.782l7.76 3.037M1215.41 96.523l-6.21-2.43M1209.33 112.051l-6.21-2.43M1213.92 104.895l-7.76-3.038"/></g><g stroke="#E18A54" stroke-linecap="round" stroke-linejoin="round" stroke-miterlimit="10" stroke-width="2" opacity=".15"><path d="M885.683 595.017s-5.532 12.945 5.387 22.421c10.939 9.467 4.376 28.63-12.019 30.72-16.396 2.091-19.023 12.388-19.023 12.388"/><path d="M907.77 603.658s-4.722 13.263-19.173 12.812c-14.459-.47-22.642 18.059-12.019 30.721 10.623 12.662 5.565 22.007 5.565 22.007M885.419 598.119l6.985 2.733M906.375 606.318l-6.985-2.733M886.027 604.8l4.191 1.64M901.394 610.813l-4.191-1.64M861.916 658.191l6.985 2.733M882.871 666.39l-6.985-2.733M866.896 653.697l4.191 1.639M882.264 659.709l-4.191-1.64M878.071 621.018l5.588 2.187M872.605 634.989l5.588 2.186M873.941 627.457l6.985 2.733M896.232 628.124l-5.588-2.187M890.766 642.094l-5.588-2.186M894.896 635.656l-6.985-2.733"/></g><g stroke="#E18A54" stroke-linecap="round" stroke-linejoin="round" stroke-miterlimit="10" stroke-width="2" opacity=".15"><path d="M197.978 417.038s-12.705 29.728 12.371 51.488c25.12 21.739 10.049 65.745-27.601 70.546-37.65 4.802-43.683 28.447-43.683 28.447"/><path d="M248.698 436.882s-10.843 30.457-44.027 29.422c-33.204-1.079-51.997 41.47-27.602 70.547 24.396 29.076 12.781 50.537 12.781 50.537M197.372 424.163l16.041 6.275M245.494 442.99l-16.04-6.276M198.768 439.505l9.624 3.766M234.057 453.312l-9.624-3.765M143.4 562.112l16.04 6.276M191.522 580.94l-16.041-6.276M154.837 551.79l9.624 3.766M190.126 565.597l-9.624-3.765M180.498 476.748l12.832 5.021M167.946 508.829l12.832 5.021M171.014 491.533l16.04 6.276M222.203 493.065l-12.832-5.02M209.651 525.146l-12.832-5.02M219.136 510.361l-16.041-6.276"/></g><g stroke="#E18A54" stroke-linecap="round" stroke-linejoin="round" stroke-miterlimit="10" stroke-width="2" opacity=".15"><path d="m1495.78 542.835 42.79-23.273a.994.994 0 0 1 1.35.4l5.93 10.895c.26.484.08 1.089-.4 1.352l-42.79 23.273a.993.993 0 0 1-1.35-.399l-5.93-10.895a1.007 1.007 0 0 1 .4-1.353ZM1532.87 523.031l1.91 3.516M1528.49 525.416l1.43 2.634M1524.09 527.808l1.91 3.516M1519.7 530.194l1.44 2.634M1515.3 532.586l1.92 3.516M1510.92 534.971l1.43 2.644M1506.52 537.364l1.91 3.515M1502.13 539.759l1.44 2.633M1512.19 533.909l-7.2-13.243 1.06-9.647c.08-.778.89-1.217 1.6-.871l8.67 4.355 7.14 13.119M1530.4 540.402l8.53 15.678c.3.559.12 1.255-.43 1.553l-9.35 5.088c-.55.298-1.24.074-1.54-.485l-8.53-15.678"/><path d="m1524.98 557.432 11.33-6.164-2.41-4.436-11.33 6.164 2.41 4.436ZM1510.58 512.369l-4.39 2.385M1516.57 515.003l-10.54 5.731"/></g><g stroke="#E18A54" stroke-linecap="round" stroke-linejoin="round" stroke-miterlimit="10" stroke-width="2" opacity=".15"><path d="m41.247 690.393 42.786-23.273a.996.996 0 0 1 1.352.399l5.926 10.895a.995.995 0 0 1-.4 1.352l-42.785 23.273a.996.996 0 0 1-1.352-.399l-5.926-10.895a.995.995 0 0 1 .4-1.352ZM78.337 670.588l1.912 3.516M73.951 672.974l1.433 2.633M69.554 675.366l1.912 3.516M65.168 677.751l1.433 2.634M60.77 680.143l1.913 3.516M56.385 682.529l1.43 2.643M51.987 684.921l1.913 3.516M47.599 687.316l1.433 2.634M57.658 681.466l-7.203-13.243 1.056-9.646c.083-.778.89-1.218 1.602-.872l8.672 4.355 7.136 13.119M75.865 687.959l8.528 15.678c.304.56.119 1.256-.428 1.553l-9.354 5.088c-.547.298-1.232.075-1.536-.484l-8.528-15.678"/><path d="m70.448 704.989 11.332-6.164-2.413-4.436-11.332 6.164 2.413 4.436ZM56.044 659.926l-4.386 2.386M62.033 662.561l-10.535 5.73"/></g><g stroke="#E18A54" stroke-linecap="round" stroke-linejoin="round" stroke-miterlimit="10" stroke-width="2" opacity=".15"><path d="m878.182 153.984-8.794-4.403-5.768 7.569a1.263 1.263 0 0 1-1.827.19l-11.408-9.807-5.7-.814a1.253 1.253 0 0 1-1.073-1.362l.974-9.927s-17.209-14.689 4.316-31.895c21.526-17.206 36.831 5.34 34.785 23.602l13.081 11.959-18.602 14.869.016.019Z"/><path d="M870.821 113.897a11.36 11.36 0 0 0-1.459-1.503l1.299-2.76-5.044-2.368-1.321 2.793c-2.042-.362-3.872-.378-6.179.759l-1.992-2.492-3.925 3.137 1.992 2.492c-1.617 2-2.151 3.906-2.248 5.978l-3.084.728 1.149 5.481 2.949-.636c.315.616.678 1.21 1.125 1.77.447.559.927 1.059 1.459 1.503l-1.3 2.759 5.044 2.368 1.478-2.918c2.042.361 4.02.26 6.327-.877l1.568 1.963 3.925-3.137-1.569-1.962c1.617-2.001 1.995-3.782 2.102-5.861l3.005-.665-1.188-5.45-2.969.652a11.359 11.359 0 0 0-1.144-1.754Z"/><path d="M865.681 124.726a5.313 5.313 0 1 0-6.635-8.3 5.314 5.314 0 0 0 6.635 8.3Z"/></g><g stroke="#E18A54" stroke-linecap="round" stroke-linejoin="round" stroke-miterlimit="10" stroke-width="2" opacity=".15"><path d="m72.388 236.747-18.102 23.734c-2.654 3.472-7.615 4.134-11.09 1.496l23.39-30.664M73.18 237.236l7.168 28.603c1.069 4.238 5.366 6.804 9.6 5.752l-9.393-37.406"/><path d="M72.838 236.393a7.854 7.854 0 1 0 3.164-15.386 7.854 7.854 0 0 0-9.275 6.111 7.854 7.854 0 0 0 6.111 9.275ZM76.644 219.971l1.016-4.942M63.957 248.269l13.18 2.71M54.073 246.237l-6.59-1.355M87.02 253.012l4.943 1.016M71.224 246.329l-2.032 9.885M96.383 297.33l-66.736-13.722a1.687 1.687 0 0 1-1.308-1.986l2.933-14.267a1.687 1.687 0 0 1 1.986-1.308l66.736 13.722a1.688 1.688 0 0 1 1.309 1.986l-2.934 14.267a1.676 1.676 0 0 1-1.986 1.308ZM39.354 284.419l1.016-4.942M45.943 285.774l.678-3.295M52.533 287.129l1.016-4.942M59.122 288.484l.678-3.295M67.36 290.178l1.015-4.942M73.949 291.533l.677-3.295M80.538 292.888l1.017-4.943M87.128 294.243l.677-3.295"/></g><g stroke="#E18A54" stroke-linecap="round" stroke-linejoin="round" stroke-miterlimit="10" stroke-width="2" opacity=".15"><path d="m1169.74 271.097-5.05 18.199a5.012 5.012 0 0 1-6.16 3.487l6.53-23.513M1170.32 271.199l10.94 15.117a5.013 5.013 0 0 0 6.99 1.121l-14.31-19.765"/><path d="M1169.92 270.784a4.974 4.974 0 0 0 4.02-5.771 4.974 4.974 0 0 0-9.79 1.759 4.971 4.971 0 0 0 5.77 4.012ZM1168.3 260.242l-.57-3.143M1167.5 279.848l8.38-1.507M1161.22 280.979l-4.19.753M1182.16 277.211l3.15-.565M1171.31 277l1.13 6.285M1198.09 301.044l-42.44 7.632a1.063 1.063 0 0 1-1.23-.859l-1.63-9.07a1.06 1.06 0 0 1 .86-1.236l42.43-7.632c.57-.104 1.13.283 1.23.859l1.63 9.071c.11.576-.27 1.13-.85 1.235ZM1161.55 306.87l-.57-3.142M1165.74 306.117l-.38-2.095M1169.93 305.363l-.57-3.142M1174.12 304.609l-.38-2.094M1179.35 303.668l-.56-3.143M1183.54 302.914l-.37-2.095M1187.73 302.16l-.56-3.142M1191.92 301.407l-.37-2.095"/></g><g stroke="#E18A54" stroke-linecap="round" stroke-linejoin="round" stroke-miterlimit="10" stroke-width="2" opacity=".15"><path d="m1578.39 271.747-18.1 23.734c-2.66 3.472-7.62 4.134-11.09 1.496l23.39-30.664M1579.18 272.236l7.17 28.603a7.926 7.926 0 0 0 9.6 5.752l-9.39-37.406"/><path d="M1578.84 271.393a7.846 7.846 0 0 0 9.27-6.111c.88-4.249-1.86-8.402-6.11-9.275a7.846 7.846 0 0 0-9.27 6.111c-.88 4.249 1.86 8.402 6.11 9.275ZM1582.64 254.971l1.02-4.942M1569.96 283.269l13.18 2.71M1560.07 281.237l-6.59-1.355M1593.02 288.012l4.94 1.016M1577.22 281.329l-2.03 9.885M1602.38 332.33l-66.73-13.722a1.682 1.682 0 0 1-1.31-1.986l2.93-14.267a1.69 1.69 0 0 1 1.99-1.308l66.73 13.722c.91.187 1.5 1.08 1.31 1.986l-2.93 14.267a1.677 1.677 0 0 1-1.99 1.308ZM1545.35 319.419l1.02-4.942M1551.94 320.774l.68-3.295M1558.53 322.129l1.02-4.942M1565.12 323.484l.68-3.295M1573.36 325.178l1.02-4.942M1579.95 326.533l.68-3.295M1586.54 327.888l1.01-4.943M1593.13 329.243l.68-3.295"/></g><g stroke="#E18A54" stroke-linecap="round" stroke-linejoin="round" stroke-miterlimit="10" stroke-width="2" opacity=".15"><path d="m424.753 316.838 18.696-8.331M440.372 313.741l6.447-2.873M445.363 311.796l-21.778 9.704a3.47 3.47 0 0 1-4.585-1.758l-.046-.103a3.472 3.472 0 0 1 1.758-4.586l21.778-9.704 2.873 6.447Z"/><path d="m420.712 315.053 22.635-10.086a.708.708 0 0 0 .358-.932l-9.966-22.364a.708.708 0 0 0-.932-.358l-21.449 9.558a4.77 4.77 0 0 0-2.416 6.3l10.009 22.461M411.685 290.98l10.342 23.209"/><path d="m433.267 293.618-11.926 5.315a.708.708 0 0 1-.932-.358l-1.868-4.19a.708.708 0 0 1 .358-.932l11.926-5.315a.708.708 0 0 1 .932.358l1.868 4.19a.708.708 0 0 1-.358.932Z"/></g><g stroke="#E18A54" stroke-linecap="round" stroke-linejoin="round" stroke-miterlimit="10" stroke-width="2" opacity=".15"><path d="m78.015 84.237 23.942-10.67M98.018 80.27l8.255-3.678M104.408 77.78 76.52 90.206a4.444 4.444 0 0 1-5.872-2.252l-.059-.132a4.444 4.444 0 0 1 2.252-5.872l27.888-12.427 3.679 8.255Z"/><path d="m72.84 81.951 28.987-12.917a.907.907 0 0 0 .458-1.193L89.522 39.2a.907.907 0 0 0-1.193-.457l-27.467 12.24a6.108 6.108 0 0 0-3.094 8.067l12.817 28.764M61.28 51.124l13.245 29.72"/><path d="m88.919 54.501-15.273 6.806a.906.906 0 0 1-1.194-.457l-2.391-5.367a.907.907 0 0 1 .457-1.193l15.274-6.806a.907.907 0 0 1 1.193.457l2.391 5.367a.907.907 0 0 1-.457 1.193Z"/></g><g stroke="#E18A54" stroke-linecap="round" stroke-linejoin="round" stroke-miterlimit="10" stroke-width="2" opacity=".15"><path d="m623.694 42.72 4.505-1.558a1.976 1.976 0 0 1 2.506 1.217l18.386 53.127a1.975 1.975 0 0 1-1.217 2.505l-84.697 29.313a1.975 1.975 0 0 1-2.506-1.217l-18.387-53.126a1.976 1.976 0 0 1 1.217-2.506l3.872-1.34"/><path d="M604.044 110.617c-20.744-9.768-38.265 11.158-38.265 11.158l-18.038-52.121s17.251-22.667 37.695-13.046l18.608 54.009ZM585.938 56.434l18.516 54.041M620.618 96.772c10.575-3.535 21.482-1.41 21.482-1.41L624.061 43.24s-3.554-.875-8.541-1.13"/><path d="m586.189 56.556 26.587-21.834 18.142 52.42-27.041 23.533-17.688-54.12ZM558.867 76.267s11.681-11.422 22.146-9.311M562.089 85.574s11.68-11.421 22.145-9.31M565.31 94.882s11.68-11.422 22.145-9.311M568.531 104.189s11.681-11.421 22.145-9.311M595.821 61.56l13.133-10.236"/></g></svg>